<?xml version="1.0" ?><svg height="64" id="svg8" version="1.1" viewBox="0 0 16.933333 16.933333" width="64" xmlns="http://www.w3.org/2000/svg" xmlns:cc="http://creativecommons.org/ns#" xmlns:dc="http://purl.org/dc/elements/1.1/" xmlns:inkscape="http://www.inkscape.org/namespaces/inkscape" xmlns:rdf="http://www.w3.org/1999/02/22-rdf-syntax-ns#" xmlns:sodipodi="http://sodipodi.sourceforge.net/DTD/sodipodi-0.dtd" xmlns:svg="http://www.w3.org/2000/svg"><defs id="defs2"><marker id="Arrow2Sstart" orient="auto" refX="0" refY="0" style="overflow:visible"><path d="M 8.72,4.03 -2.21,0.02 8.72,-4 c -1.75,2.37 -1.74,5.62 0,8.03 z" id="Arrow2SstartPath" style="fill:#000000;fill-opacity:1;stroke:#000000;stroke-opacity:1" transform="matrix(0.3,0,0,0.3,-0.69,0)"/></marker><marker id="Arrow2Send" orient="auto" refX="0" refY="0" style="overflow:visible"><path d="M 8.72,4.03 -2.21,0.02 8.72,-4 c -1.75,2.37 -1.74,5.62 0,8.03 z" id="Arrow2SendPath" style="fill:#000000;fill-opacity:1;stroke:#000000;stroke-opacity:1" transform="matrix(-0.3,0,0,-0.3,0.69,0)"/></marker></defs><g id="layer1" style="display:inline"/><g id="g1018" style="display:inline"><path d="m 32,2.8789062 c -2.114182,-2e-7 -4.89045,0.6668209 -7.21875,1.3144532 -2.228948,0.6199969 -3.925475,1.2115797 -4.074219,1.2636718 0.07576,-0.0094 0.150196,-0.023437 0.228516,-0.023437 l -0.332031,0.058594 c 0,0 0.09689,-0.032834 0.103515,-0.035156 -0.965592,0.1198269 -1.705078,0.9695309 -1.705078,1.9472657 V 29.203125 c 0,0.992174 0.761462,1.858913 1.748047,1.958984 v 28.955079 a 1.0000006,1.0000006 0 0 0 0.996094,0.998046 1.0000006,1.0000006 0 0 0 1.005859,-0.998046 V 31.181641 H 41.25 V 60.117188 A 1.0000006,1.0000006 0 0 0 42.246094,61.115234 1.0000006,1.0000006 0 0 0 43.25,60.117188 V 31.162109 C 44.237527,31.062988 45,30.195948 45,29.203125 V 7.4042969 C 45,6.8695017 44.749316,6.3601164 44.410156,6.0390625 44.070997,5.718009 43.673128,5.5519337 43.287109,5.4628906 l 0.111329,0.029297 c 0,0 -1.849436,-0.6511959 -4.177735,-1.2988281 C 36.892404,3.5457272 34.114181,2.8789062 32,2.8789062 Z m 0,2 c 1.663749,0 4.421609,0.6115916 6.681641,1.2402344 2.260032,0.6286428 4.052734,1.2636719 4.052734,1.2636719 l 0.05078,0.013672 0.05859,0.015625 c 0.0963,0.022213 0.133414,0.044148 0.15625,0.058594 V 29.179688 H 42.246094 21.001953 V 7.4335938 h 0.103516 l 0.162109,-0.050781 c 0,0 1.792703,-0.6350287 4.052734,-1.2636719 C 27.580343,5.4904978 30.33625,4.8789062 32,4.8789062 Z" id="path1030" style="color:#000000;font-style:normal;font-variant:normal;font-weight:normal;font-stretch:normal;font-size:medium;line-height:normal;font-family:sans-serif;font-variant-ligatures:normal;font-variant-position:normal;font-variant-caps:normal;font-variant-numeric:normal;font-variant-alternates:normal;font-variant-east-asian:normal;font-feature-settings:normal;font-variation-settings:normal;text-indent:0;text-align:start;text-decoration:none;text-decoration-line:none;text-decoration-style:solid;text-decoration-color:#000000;letter-spacing:normal;word-spacing:normal;text-transform:none;writing-mode:lr-tb;direction:ltr;text-orientation:mixed;dominant-baseline:auto;baseline-shift:baseline;text-anchor:start;white-space:normal;shape-padding:0;shape-margin:0;inline-size:0;clip-rule:nonzero;display:inline;overflow:visible;visibility:visible;opacity:1;isolation:auto;mix-blend-mode:normal;color-interpolation:sRGB;color-interpolation-filters:linearRGB;solid-color:#000000;solid-opacity:1;vector-effect:none;fill:#000000;fill-opacity:1;fill-rule:evenodd;stroke:none;stroke-width:2;stroke-linecap:butt;stroke-linejoin:miter;stroke-miterlimit:4;stroke-dasharray:none;stroke-dashoffset:0;stroke-opacity:1;color-rendering:auto;image-rendering:auto;shape-rendering:auto;text-rendering:auto;enable-background:accumulate;stop-color:#000000;stop-opacity:1" transform="scale(0.26458333)"/></g></svg>