<?xml version="1.0" ?><svg id="Layer_1" style="enable-background:new 0 0 100 100;" version="1.1" viewBox="0 0 100 100" xml:space="preserve" xmlns="http://www.w3.org/2000/svg" xmlns:xlink="http://www.w3.org/1999/xlink"><path d="M75.821,3c-0.224,0-0.441,0.025-0.662,0.034C75.112,3.03,75.068,3.02,75.02,3.02H31.21c-4.979,0-9.03,4.047-9.03,9.021  v66.597c0,0.005-0.001,0.01-0.001,0.015s0.001,0.01,0.001,0.015v9.294c0,4.974,4.051,9.021,9.03,9.021h37.58  c4.979,0,9.03-4.047,9.03-9.021v-9.294c0-0.005,0.001-0.01,0.001-0.015s-0.001-0.01-0.001-0.015V38.09  c8.769-0.997,15.607-8.453,15.607-17.485C93.427,10.897,85.529,3,75.821,3z M31.21,7.02h33.426c-2.507,2.067-4.42,4.82-5.483,7.961  H26.18v-2.94C26.18,9.271,28.437,7.02,31.21,7.02z M73.82,76.651H26.18V18.98h32.117c-0.049,0.536-0.082,1.076-0.082,1.625  c0,9.03,6.837,16.486,15.604,17.484V76.651z M68.79,92.98H31.21c-2.773,0-5.03-2.252-5.03-5.021v-7.309h47.64v7.309  C73.82,90.729,71.563,92.98,68.79,92.98z M75.833,34.211c-0.005,0-0.009-0.001-0.013-0.001c-0.004,0-0.008,0.001-0.012,0.001  c-7.496-0.008-13.592-6.107-13.592-13.606C62.215,13.104,68.319,7,75.821,7s13.606,6.104,13.606,13.605  C89.427,28.104,83.33,34.205,75.833,34.211z"/><path d="M46.269,13.125h7.463c1.104,0,2-0.896,2-2s-0.896-2-2-2h-7.463c-1.104,0-2,0.896-2,2S45.164,13.125,46.269,13.125z"/><path d="M75.82,16.812c-1.104,0-2,0.896-2,2v9.444c0,1.104,0.896,2,2,2s2-0.896,2-2v-9.444C77.82,17.707,76.924,16.812,75.82,16.812  z"/><path d="M75.82,10.956c-1.104,0-2,0.896-2,2v0.229c0,1.104,0.896,2,2,2s2-0.896,2-2v-0.229C77.82,11.852,76.924,10.956,75.82,10.956  z"/></svg>