<?xml version="1.0" ?><svg viewBox="0 0 64 64" xmlns="http://www.w3.org/2000/svg"><g id="Microscope-Scientific-Laboratory-Test-Chemistry"><path d="M61,56H57.08l2.7-3.38A.977.977,0,0,0,60,52V13a5,5,0,0,0-5-5H37.89A7.048,7.048,0,0,0,34,6.08V3a1,1,0,0,0-1-1H21a1,1,0,0,0-1,1V31a1,1,0,0,0,1,1h1v1a1.033,1.033,0,0,0,.29.71l2,2A1.033,1.033,0,0,0,25,36h4a1.033,1.033,0,0,0,.71-.29l2-2A1.033,1.033,0,0,0,32,33V32h1a1,1,0,0,0,1-1V19.92A7.048,7.048,0,0,0,37.89,18h7.7L50,22.41V46H43a3.009,3.009,0,0,0-3,3v7H30V50h5a1,1,0,0,0,1-1V45a1,1,0,0,0-1-1H34V42h2V40H18v2h2v2H19a1,1,0,0,0-1,1v4a1,1,0,0,0,1,1h5v6H13a1,1,0,0,0-1,1v4a1,1,0,0,0,1,1H61a1,1,0,0,0,1-1V57A1,1,0,0,0,61,56ZM30,32.59,28.59,34H25.41L24,32.59V32h6ZM32,30H22V4H32V6.08a6.991,6.991,0,0,0,0,13.84Zm1-12a5,5,0,1,1,5-5A5,5,0,0,1,33,18Zm9,31a1,1,0,0,1,1-1h8a1,1,0,0,0,1-1V22a1.033,1.033,0,0,0-.29-.71l-5-5A1.033,1.033,0,0,0,46,16H39.31a6.867,6.867,0,0,0,0-6H55a3.009,3.009,0,0,1,3,3V51.65L54.52,56H42ZM22,42H32v2H22Zm-2,6V46H34v2Zm8,2v6H26V50ZM60,60H14V58H60Z"/><circle cx="53" cy="15" r="2"/><circle cx="33" cy="13" r="2"/><path d="M4.567,26.019,3.051,27.536,4.465,28.95l1.516-1.517A3.915,3.915,0,0,0,7,27.858V30H9V27.858a3.915,3.915,0,0,0,1.019-.425l1.516,1.517,1.414-1.414-1.516-1.517A3.915,3.915,0,0,0,11.858,25H14V23H11.858a3.915,3.915,0,0,0-.425-1.019l1.516-1.517L11.535,19.05l-1.516,1.517A3.915,3.915,0,0,0,9,20.142V18H7v2.142a3.915,3.915,0,0,0-1.019.425L4.465,19.05,3.051,20.464l1.516,1.517A3.915,3.915,0,0,0,4.142,23H2v2H4.142A3.915,3.915,0,0,0,4.567,26.019ZM8,22a2,2,0,1,1-2,2A2,2,0,0,1,8,22Z"/><path d="M15,36h3V34H15.414l-2.707-2.707-1.414,1.414,3,3A1,1,0,0,0,15,36Z"/><rect height="2" width="2" x="2" y="33"/><rect height="2" width="4" x="6" y="33"/><rect height="2" width="8" x="2" y="37"/></g></svg>